# File created by Blade
# Date/Time:  Tue Jan 27 19:23:16 2015
# Frame Rate: 120.000 fps
#------------------------------------------------------
:FULLY-SPECIFIED
:DEGREES
4105
root 1.468855 32.299060 -0.499994 -3.517939 -18.290455 -1.038174
Spine 3.564589 -12.906461 -4.549920
Head 12.462788 -2.565454 8.515683
LeftShoulder -11.792897 3.203374 31.451326
LeftArm -7.695233 39.349724 -108.541873
LeftForeArm 4.585818 -0.000000 18.219312
LeftHand 9.307262 -0.000000 -4.384470
LeftHandThumb1 -26.253704 0.000000 33.147579
RightShoulder -28.356590 -21.576757 -36.208720
RightArm 182.400255 153.207867 225.996233
RightForeArm 20.832896 -0.000000 100.007112
RightHand 24.966637 -0.000000 -11.552897
RightHandThumb1 -24.326973 -0.000000 -32.862282
LeftUpLeg 14.417562 18.790468 7.412269
LeftLeg 0.180389 -0.000000 -0.000000
LeftFoot -18.056646 13.804562 -27.342577
LeftToeBase 17.451855 -0.000000 -0.000000
RightUpLeg 5.742380 5.575998 7.613907
RightLeg 2.707889 -0.000000 -0.000000
RightFoot -8.969477 -9.732756 10.798431
RightToeBase 14.352230 -0.000000 -0.000000
4106
root 1.462915 32.298362 -0.492012 -3.535768 -18.231545 -1.030938
Spine 3.524813 -12.925950 -4.520438
Head 12.457805 -2.561863 8.513313
LeftShoulder -11.790438 3.187186 31.440308
LeftArm -7.721690 39.267707 -108.533220
LeftForeArm 4.629989 -0.000000 18.316891
LeftHand 9.307781 0.000000 -4.361438
LeftHandThumb1 -26.253704 0.000000 33.147579
RightShoulder -28.384328 -21.529980 -36.217164
RightArm 181.903888 150.942998 226.336381
RightForeArm 21.266550 -0.000000 100.361703
RightHand 24.981730 -0.000000 -11.868430
RightHandThumb1 -24.326973 -0.000000 -32.862282
LeftUpLeg 14.432375 18.772249 7.424259
LeftLeg 0.193210 -0.000000 -0.000000
LeftFoot -18.029126 13.772908 -27.293180
LeftToeBase 17.411579 -0.000000 -0.000000
RightUpLeg 5.768481 5.584380 7.619858
RightLeg 2.727915 -0.000000 -0.000000
RightFoot -9.018414 -9.789096 10.811994
RightToeBase 14.384727 -0.000000 -0.000000
4107
root 1.456021 32.297923 -0.483671 -3.554659 -18.167967 -1.025864
Spine 3.486936 -12.959397 -4.492026
Head 12.452961 -2.542022 8.473093
LeftShoulder -11.803051 3.200462 31.422769
LeftArm -7.704310 39.215430 -108.507171
LeftForeArm 4.690418 -0.000000 18.365148
LeftHand 9.347523 -0.000000 -4.070202
LeftHandThumb1 -26.253704 0.000000 33.147579
RightShoulder -28.436748 -21.445071 -36.238242
RightArm 181.443002 148.777814 226.605439
RightForeArm 21.763875 -0.000000 100.661274
RightHand 25.060880 -0.000000 -12.175019
RightHandThumb1 -24.326973 -0.000000 -32.862282
LeftUpLeg 14.442300 18.735421 7.436540
LeftLeg 0.220461 -0.000000 -0.000000
LeftFoot -18.010493 13.720889 -27.271935
LeftToeBase 17.384718 -0.000000 -0.000000
RightUpLeg 5.792996 5.540635 7.626328
RightLeg 2.754789 -0.000000 -0.000000
RightFoot -9.054909 -9.813662 10.806114
RightToeBase 14.373914 -0.000000 -0.000000
4108
root 1.449452 32.297397 -0.474605 -3.580874 -18.100352 -1.017535
Spine 3.451027 -13.008263 -4.473095
Head 12.471697 -2.534644 8.466661
LeftShoulder -11.807720 3.188045 31.412067
LeftArm -7.738279 39.127883 -108.507079
LeftForeArm 4.705151 -0.000000 18.429396
LeftHand 9.467553 -0.000000 -3.987430
LeftHandThumb1 -26.253704 0.000000 33.147579
RightShoulder -28.465633 -21.360060 -36.246464
RightArm 180.969502 146.602223 226.778335
RightForeArm 22.268285 -0.000000 100.954951
RightHand 25.262725 -0.000000 -12.142207
RightHandThumb1 -24.326973 -0.000000 -32.862282
LeftUpLeg 14.458169 18.717521 7.453874
LeftLeg 0.238607 -0.000000 -0.000000
LeftFoot -18.021132 13.678346 -27.319114
LeftToeBase 17.483025 -0.000000 -0.000000
RightUpLeg 5.828551 5.517055 7.630953
RightLeg 2.776064 -0.000000 -0.000000
RightFoot -9.102349 -9.839734 10.826572
RightToeBase 14.352040 -0.000000 -0.000000
4109
root 1.442933 32.297184 -0.464805 -3.603233 -18.040085 -1.007249
Spine 3.406435 -13.033956 -4.453311
Head 12.505705 -2.557166 8.463760
LeftShoulder -11.806350 3.191867 31.396663
LeftArm -7.736381 39.082400 -108.486407
LeftForeArm 4.683231 0.000000 18.480581
LeftHand 9.465743 0.000000 -3.961340
LeftHandThumb1 -26.253704 0.000000 33.147579
RightShoulder -28.505593 -21.295441 -36.264181
RightArm 180.469317 144.524412 226.868172
RightForeArm 22.485376 -0.000000 101.255247
RightHand 25.285541 -0.000000 -12.351623
RightHandThumb1 -24.326973 -0.000000 -32.862282
LeftUpLeg 14.477264 18.710970 7.468119
LeftLeg 0.262799 -0.000000 -0.000000
LeftFoot -17.962050 13.625021 -27.246756
LeftToeBase 17.358398 -0.000000 -0.000000
RightUpLeg 5.866868 5.524175 7.635498
RightLeg 2.785757 -0.000000 -0.000000
RightFoot -9.142823 -9.898565 10.840837
RightToeBase 14.298614 -0.000000 -0.000000
4110
root 1.436025 32.296284 -0.457177 -3.633829 -17.970243 -1.009314
Spine 3.374294 -13.016105 -4.427269
Head 12.537170 -2.622674 8.462102
LeftShoulder -11.750834 3.184971 31.394600
LeftArm -7.696746 39.042426 -108.460287
LeftForeArm 4.665202 -0.000000 18.506023
LeftHand 9.434774 -0.000000 -3.985467
LeftHandThumb1 -26.253704 0.000000 33.147579
RightShoulder -28.599910 -21.389739 -36.235864
RightArm 180.053349 142.423125 226.994309
RightForeArm 22.533900 -0.000000 101.566133
RightHand 25.441584 0.000000 -12.464882
RightHandThumb1 -24.326973 -0.000000 -32.862282
LeftUpLeg 14.501115 18.715717 7.503861
LeftLeg 0.279587 -0.000000 -0.000000
LeftFoot -17.975557 13.560812 -27.294940
LeftToeBase 17.470302 -0.000000 -0.000000
RightUpLeg 5.905694 5.477202 7.650085
RightLeg 2.810152 -0.000000 -0.000000
RightFoot -9.171171 -9.922223 10.836434
RightToeBase 14.180115 -0.000000 -0.000000
4111
root 1.427489 32.296168 -0.446566 -3.645931 -17.905722 -1.006029
Spine 3.313999 -13.028707 -4.412578
Head 12.606645 -2.597861 8.499752
LeftShoulder -11.746162 3.201775 31.392444
LeftArm -7.656233 39.028297 -108.439243
LeftForeArm 4.650563 -0.000000 18.492143
LeftHand 9.404017 -0.000000 -4.025874
LeftHandThumb1 -26.253704 0.000000 33.147579
RightShoulder -28.603779 -21.254255 -36.283295
RightArm 179.353794 140.423746 226.834445
RightForeArm 22.294851 0.000000 101.922179
RightHand 25.398242 0.000000 -12.682127
RightHandThumb1 -24.326973 -0.000000 -32.862282
LeftUpLeg 14.514769 18.698678 7.523695
LeftLeg 0.291009 -0.000000 -0.000000
LeftFoot -17.953941 13.516191 -27.292572
LeftToeBase 17.477778 -0.000000 -0.000000
RightUpLeg 5.936778 5.465429 7.663032
RightLeg 2.823516 -0.000000 -0.000000
RightFoot -9.225720 -9.962763 10.874649
RightToeBase 14.284951 -0.000000 -0.000000
4112
root 1.421119 32.295427 -0.434433 -3.684813 -17.857902 -0.980531
Spine 3.280059 -13.088689 -4.397811
Head 12.601808 -2.596677 8.431115
LeftShoulder -11.803584 3.255890 31.340524
LeftArm -7.604775 39.041310 -108.376193
LeftForeArm 4.628342 -0.000000 18.508965
LeftHand 9.343037 0.000000 -4.036651
LeftHandThumb1 -26.253704 0.000000 33.147579
RightShoulder -28.589849 -21.182404 -36.369746
RightArm 178.755608 138.374408 226.765736
RightForeArm 21.922967 0.000000 102.270160
RightHand 25.455880 -0.000000 -12.723898
RightHandThumb1 -24.326973 -0.000000 -32.862282
LeftUpLeg 14.545333 18.728015 7.526356
LeftLeg 0.320432 -0.000000 -0.000000
LeftFoot -17.926699 13.508387 -27.200650
LeftToeBase 17.463114 -0.000000 -0.000000
RightUpLeg 6.001296 5.502769 7.657477
RightLeg 2.814165 -0.000000 -0.000000
RightFoot -9.273450 -10.051989 10.870974
RightToeBase 14.195776 -0.000000 -0.000000
4113
root 1.412688 32.295105 -0.423910 -3.700277 -17.805055 -0.983876
Spine 3.228395 -13.117350 -4.359177
Head 12.637234 -2.614625 8.377831
LeftShoulder -11.822569 3.263665 31.305973
LeftArm -7.582016 39.048740 -108.344909
LeftForeArm 4.637926 0.000000 18.489074
LeftHand 9.358304 -0.000000 -3.999635
LeftHandThumb1 -26.253704 0.000000 33.147579
RightShoulder -28.601341 -21.158748 -36.434105
RightArm 178.157054 136.285857 226.683103
RightForeArm 21.542162 -0.000000 102.628576
RightHand 25.507815 -0.000000 -12.859743
RightHandThumb1 -24.326973 -0.000000 -32.862282
LeftUpLeg 14.569596 18.686228 7.545064
LeftLeg 0.322367 -0.000000 -0.000000
LeftFoot -17.921323 13.498708 -27.195268
LeftToeBase 17.474851 -0.000000 -0.000000
RightUpLeg 6.017783 5.438821 7.669612
RightLeg 2.863335 -0.000000 -0.000000
RightFoot -9.320849 -10.032767 10.885123
RightToeBase 14.328353 -0.000000 -0.000000
